<svg xmlns="http://www.w3.org/2000/svg" viewBox="0 0 220 240">
<defs>
 <linearGradient id="shirt" x1="0" x2="0" y1="0" y2="1"><stop stop-color="#e6a83c"/><stop offset="1" stop-color="#574133"/></linearGradient>
 <filter id="s"><feDropShadow dx="0" dy="8" stdDeviation="6" flood-opacity=".35"/></filter>
</defs>
<g filter="url(#s)">
 <path d="M38 234 Q45 170 110 164 Q175 170 182 234Z" fill="url(#shirt)" stroke="#2f211c" stroke-width="6"/>
 <ellipse cx="110" cy="98" rx="62" ry="70" fill="#efc5aa" stroke="#3b2822" stroke-width="6"/>
 <path d="M48 92 Q42 22 110 21 Q180 23 171 101 Q151 72 110 67 Q75 69 48 92Z" fill="#4d3326"/>
 <path d="M54 83 Q64 28 112 27 Q158 29 168 82 Q149 56 110 53 Q77 54 54 83Z" fill="#4d3326"/>
 <ellipse cx="85" cy="102" rx="10" ry="14" fill="#2b1915"/>
 <ellipse cx="135" cy="102" rx="10" ry="14" fill="#2b1915"/>
 <circle cx="88" cy="98" r="3.5" fill="#fff"/><circle cx="138" cy="98" r="3.5" fill="#fff"/>
 <path d="M93 128 Q110 141 127 128" fill="none" stroke="#9b514a" stroke-width="5" stroke-linecap="round"/>
 <ellipse cx="67" cy="121" rx="13" ry="7" fill="#ef8d8b" opacity=".45"/>
 <ellipse cx="153" cy="121" rx="13" ry="7" fill="#ef8d8b" opacity=".45"/>
</g>
</svg>